<svg width="1600" height="1100" viewBox="0 0 1600 1100" fill="none" xmlns="http://www.w3.org/2000/svg">
  <defs>
    <linearGradient id="bg" x1="220" y1="70" x2="920" y2="1080" gradientUnits="userSpaceOnUse">
      <stop stop-color="#4B0A7A"/>
      <stop offset="0.48" stop-color="#2A0B4F"/>
      <stop offset="1" stop-color="#170B2D"/>
    </linearGradient>
    <linearGradient id="phoneBg" x1="360" y1="96" x2="850" y2="1000" gradientUnits="userSpaceOnUse">
      <stop stop-color="#FCFCFF"/>
      <stop offset="1" stop-color="#F4F5F9"/>
    </linearGradient>
    <filter id="shadow" x="260" y="38" width="480" height="1024" filterUnits="userSpaceOnUse" color-interpolation-filters="sRGB">
      <feDropShadow dx="0" dy="28" stdDeviation="28" flood-color="#12071C" flood-opacity="0.35"/>
    </filter>
    <filter id="cardShadow" x="0" y="0" width="340" height="170" filterUnits="userSpaceOnUse" color-interpolation-filters="sRGB">
      <feDropShadow dx="0" dy="10" stdDeviation="14" flood-color="#0E1320" flood-opacity="0.08"/>
    </filter>
  </defs>

  <rect width="1600" height="1100" fill="#F3F0F8"/>
  <circle cx="1260" cy="210" r="240" fill="#E8DCF7"/>
  <circle cx="1380" cy="860" r="300" fill="#EEE7F8"/>
  <circle cx="230" cy="980" r="180" fill="#E5F4FB"/>

  <text x="980" y="170" fill="#221433" font-size="52" font-family="Segoe UI, Arial, sans-serif" font-weight="700">Patient Dashboard Quick Actions</text>
  <text x="980" y="220" fill="#615A70" font-size="26" font-family="Segoe UI, Arial, sans-serif">Concept mockup only: smart alert on top, action dock at the bottom</text>

  <g filter="url(#shadow)">
    <rect x="300" y="70" width="400" height="920" rx="48" fill="#0F0D16"/>
    <rect x="318" y="88" width="364" height="884" rx="38" fill="url(#phoneBg)"/>
    <rect x="438" y="102" width="124" height="26" rx="13" fill="#17131F"/>
    <rect x="470" y="108" width="60" height="8" rx="4" fill="#2A2531"/>
  </g>

  <g>
    <path d="M318 88H682V315C682 315 620 340 500 340C380 340 318 315 318 315V88Z" fill="url(#bg)"/>
    <text x="360" y="170" fill="#FFFFFF" font-size="18" font-family="Segoe UI, Arial, sans-serif" opacity="0.75">Welcome back</text>
    <text x="360" y="208" fill="#FFFFFF" font-size="34" font-family="Segoe UI, Arial, sans-serif" font-weight="700">Sarah</text>

    <rect x="590" y="148" width="36" height="36" rx="12" fill="rgba(255,255,255,0.14)"/>
    <rect x="632" y="148" width="36" height="36" rx="12" fill="rgba(255,255,255,0.14)"/>
    <text x="601" y="173" fill="#FFFFFF" font-size="16" font-family="Segoe UI, Arial, sans-serif" font-weight="700">H</text>
    <text x="642" y="173" fill="#FFFFFF" font-size="16" font-family="Segoe UI, Arial, sans-serif" font-weight="700">B</text>

    <circle cx="350" cy="164" r="26" fill="rgba(255,255,255,0.16)"/>
    <text x="334" y="172" fill="#FFFFFF" font-size="18" font-family="Segoe UI, Arial, sans-serif" font-weight="700">SJ</text>

    <rect x="342" y="246" width="316" height="118" rx="22" fill="#FFF7E8"/>
    <rect x="356" y="262" width="44" height="44" rx="14" fill="#F59E0B"/>
    <text x="370" y="290" fill="#FFFFFF" font-size="22" font-family="Segoe UI Emoji, Segoe UI, Arial, sans-serif">!</text>
    <text x="414" y="282" fill="#7A4D00" font-size="14" font-family="Segoe UI, Arial, sans-serif" font-weight="700">SMART ALERT</text>
    <text x="414" y="306" fill="#221433" font-size="22" font-family="Segoe UI, Arial, sans-serif" font-weight="700">2 new quotes received</text>
    <text x="414" y="332" fill="#6B6678" font-size="15" font-family="Segoe UI, Arial, sans-serif">Case #1003 is ready to compare.</text>
    <rect x="414" y="344" width="122" height="34" rx="17" fill="#4B0A7A"/>
    <text x="441" y="366" fill="#FFFFFF" font-size="15" font-family="Segoe UI, Arial, sans-serif" font-weight="700">Compare now</text>
  </g>

  <g>
    <text x="342" y="410" fill="#1F1630" font-size="18" font-family="Segoe UI, Arial, sans-serif" font-weight="700">My Cases</text>

    <rect x="342" y="434" width="316" height="168" rx="24" fill="#FFFFFF" stroke="#E5E7EF"/>
    <rect x="360" y="454" width="42" height="42" rx="14" fill="#F0E7F8"/>
    <text x="373" y="482" fill="#4B0A7A" font-size="17" font-family="Segoe UI, Arial, sans-serif" font-weight="700">D</text>
    <text x="416" y="468" fill="#20162D" font-size="20" font-family="Segoe UI, Arial, sans-serif" font-weight="700">Case #1003</text>
    <text x="416" y="490" fill="#7A7388" font-size="14" font-family="Segoe UI, Arial, sans-serif">Mar 15 쨌 United States</text>
    <rect x="560" y="456" width="80" height="28" rx="14" fill="#EAF5FF"/>
    <text x="580" y="474" fill="#2563EB" font-size="13" font-family="Segoe UI, Arial, sans-serif" font-weight="700">2 quotes</text>

    <rect x="360" y="516" width="96" height="28" rx="14" fill="#F5F6FA"/>
    <text x="376" y="534" fill="#263042" font-size="12" font-family="Segoe UI, Arial, sans-serif">Implants 횞2</text>
    <rect x="466" y="516" width="84" height="28" rx="14" fill="#F5F6FA"/>
    <text x="487" y="534" fill="#263042" font-size="12" font-family="Segoe UI, Arial, sans-serif">Crown 횞1</text>

    <rect x="360" y="556" width="280" height="30" rx="15" fill="#ECFDF3"/>
    <text x="378" y="576" fill="#15803D" font-size="13" font-family="Segoe UI, Arial, sans-serif" font-weight="700">Quotes ready</text>
    <text x="470" y="576" fill="#4B5563" font-size="13" font-family="Segoe UI, Arial, sans-serif">Review and accept a quote</text>
  </g>

  <g>
    <rect x="334" y="792" width="332" height="154" rx="30" fill="#FFFFFF" stroke="#E8E9F0"/>
    <text x="360" y="826" fill="#1F1630" font-size="18" font-family="Segoe UI, Arial, sans-serif" font-weight="700">Quick Actions</text>

    <g>
      <rect x="358" y="844" width="84" height="84" rx="24" fill="#F4EAFB"/>
      <circle cx="400" cy="874" r="18" fill="#4B0A7A"/>
      <text x="394" y="880" fill="#FFFFFF" font-size="16" font-family="Segoe UI, Arial, sans-serif" font-weight="700">Q</text>
      <text x="383" y="915" fill="#2B1D41" font-size="13" font-family="Segoe UI, Arial, sans-serif" font-weight="700">Quotes</text>
    </g>

    <g>
      <rect x="450" y="844" width="84" height="84" rx="24" fill="#EAF5FF"/>
      <circle cx="492" cy="874" r="18" fill="#2563EB"/>
      <text x="486" y="880" fill="#FFFFFF" font-size="16" font-family="Segoe UI, Arial, sans-serif" font-weight="700">M</text>
      <text x="470" y="915" fill="#2B1D41" font-size="13" font-family="Segoe UI, Arial, sans-serif" font-weight="700">Messages</text>
      <rect x="514" y="848" width="16" height="16" rx="8" fill="#EF4444"/>
      <text x="519" y="859" fill="#FFFFFF" font-size="10" font-family="Segoe UI, Arial, sans-serif" font-weight="700">3</text>
    </g>

    <g>
      <rect x="542" y="844" width="84" height="84" rx="24" fill="#E8F8F4"/>
      <circle cx="584" cy="874" r="18" fill="#0F766E"/>
      <text x="578" y="880" fill="#FFFFFF" font-size="16" font-family="Segoe UI, Arial, sans-serif" font-weight="700">T</text>
      <text x="563" y="915" fill="#2B1D41" font-size="13" font-family="Segoe UI, Arial, sans-serif" font-weight="700">My Trip</text>
    </g>

    <g>
      <rect x="634" y="844" width="84" height="84" rx="24" fill="#FFF3EA"/>
      <circle cx="676" cy="874" r="18" fill="#EA580C"/>
      <text x="671" y="880" fill="#FFFFFF" font-size="16" font-family="Segoe UI, Arial, sans-serif" font-weight="700">$</text>
      <text x="657" y="915" fill="#2B1D41" font-size="13" font-family="Segoe UI, Arial, sans-serif" font-weight="700">Pay</text>
    </g>
  </g>

  <g>
    <rect x="980" y="300" width="440" height="580" rx="34" fill="#FFFFFF" stroke="#E6E7ED"/>
    <text x="1020" y="360" fill="#1C1528" font-size="28" font-family="Segoe UI, Arial, sans-serif" font-weight="700">Recommended Action Set</text>

    <g>
      <rect x="1020" y="396" width="160" height="132" rx="26" fill="#F4EAFB"/>
      <circle cx="1100" cy="444" r="26" fill="#4B0A7A"/>
      <text x="1090" y="452" fill="#FFFFFF" font-size="20" font-family="Segoe UI, Arial, sans-serif" font-weight="700">Q</text>
      <text x="1076" y="494" fill="#1F1630" font-size="22" font-family="Segoe UI, Arial, sans-serif" font-weight="700">Quotes</text>
      <text x="1042" y="518" fill="#726B80" font-size="15" font-family="Segoe UI, Arial, sans-serif">Core conversion action</text>
    </g>

    <g>
      <rect x="1200" y="396" width="160" height="132" rx="26" fill="#EAF5FF"/>
      <circle cx="1280" cy="444" r="26" fill="#2563EB"/>
      <text x="1270" y="452" fill="#FFFFFF" font-size="20" font-family="Segoe UI, Arial, sans-serif" font-weight="700">M</text>
      <text x="1248" y="494" fill="#1F1630" font-size="22" font-family="Segoe UI, Arial, sans-serif" font-weight="700">Messages</text>
      <text x="1216" y="518" fill="#726B80" font-size="15" font-family="Segoe UI, Arial, sans-serif">Trust and coordination</text>
    </g>

    <g>
      <rect x="1020" y="548" width="160" height="132" rx="26" fill="#E8F8F4"/>
      <circle cx="1100" cy="596" r="26" fill="#0F766E"/>
      <text x="1091" y="453" opacity="0">x</text>
      <text x="1090" y="604" fill="#FFFFFF" font-size="20" font-family="Segoe UI, Arial, sans-serif" font-weight="700">T</text>
      <text x="1054" y="646" fill="#1F1630" font-size="22" font-family="Segoe UI, Arial, sans-serif" font-weight="700">My Trip</text>
      <text x="1040" y="670" fill="#726B80" font-size="15" font-family="Segoe UI, Arial, sans-serif">Travel and visit hub</text>
    </g>

    <g>
      <rect x="1200" y="548" width="160" height="132" rx="26" fill="#FFF3EA"/>
      <circle cx="1280" cy="596" r="26" fill="#EA580C"/>
      <text x="1272" y="604" fill="#FFFFFF" font-size="20" font-family="Segoe UI, Arial, sans-serif" font-weight="700">$</text>
      <text x="1248" y="646" fill="#1F1630" font-size="22" font-family="Segoe UI, Arial, sans-serif" font-weight="700">Payments</text>
      <text x="1224" y="670" fill="#726B80" font-size="15" font-family="Segoe UI, Arial, sans-serif">Deposit and balance</text>
    </g>

    <g>
      <rect x="1020" y="700" width="160" height="132" rx="26" fill="#EEF2FF"/>
      <circle cx="1100" cy="748" r="26" fill="#4F46E5"/>
      <text x="1087" y="756" fill="#FFFFFF" font-size="19" font-family="Segoe UI, Arial, sans-serif" font-weight="700">DOC</text>
      <text x="1046" y="798" fill="#1F1630" font-size="22" font-family="Segoe UI, Arial, sans-serif" font-weight="700">Documents</text>
      <text x="1042" y="822" fill="#726B80" font-size="15" font-family="Segoe UI, Arial, sans-serif">Files and receipts</text>
    </g>

  </g>

  <text x="980" y="930" fill="#221433" font-size="28" font-family="Segoe UI, Arial, sans-serif" font-weight="700">Bottom dock priority</text>
  <text x="980" y="972" fill="#5F586E" font-size="24" font-family="Segoe UI, Arial, sans-serif">If you want only 4: Quotes, Messages, My Trip, Payments</text>
</svg>